<?xml version="1.0" standalone="no"?>
<!DOCTYPE svg PUBLIC "-//W3C//DTD SVG 20010904//EN"
 "http://www.w3.org/TR/2001/REC-SVG-20010904/DTD/svg10.dtd">
<svg version="1.0" xmlns="http://www.w3.org/2000/svg"
 width="16.000000pt" height="16.000000pt" viewBox="0 0 16.000000 16.000000"
 preserveAspectRatio="xMidYMid meet">
<metadata>
Created by potrace 1.11, written by Peter Selinger 2001-2013
</metadata>
<g transform="translate(0.000000,16.000000) scale(0.006250,-0.006250)"
fill="#000000" stroke="none">
<path d="M1315 1877 c-2 -7 -18 -70 -35 -142 -17 -71 -47 -192 -65 -268 -19
-76 -37 -148 -39 -160 -2 -12 -27 -116 -56 -232 -28 -116 -54 -221 -56 -235
-3 -14 -13 -58 -24 -97 -10 -40 -15 -73 -11 -74 38 -5 215 1 221 8 4 4 18 51
30 103 12 52 50 212 85 355 95 388 134 549 159 657 l23 97 -114 0 c-78 -1
-116 -4 -118 -12z"/>
<path d="M755 1720 c-66 -33 -242 -119 -392 -191 l-272 -132 0 -119 1 -120
181 -88 c100 -48 272 -131 381 -184 110 -54 204 -98 210 -99 10 -2 17 226 8
264 -2 10 -94 54 -248 119 -135 57 -241 107 -237 111 4 4 100 46 213 93 113
48 221 95 240 104 l35 18 0 142 c0 78 0 142 0 141 0 0 -54 -27 -120 -59z"/>
<path d="M1700 1631 l0 -139 183 -77 c100 -43 201 -86 224 -96 24 -11 55 -24
70 -30 l27 -10 -39 -18 c-22 -10 -112 -48 -200 -85 -88 -38 -184 -79 -212 -91
l-53 -24 0 -141 c0 -78 3 -139 8 -137 4 2 36 18 72 34 36 17 173 84 305 148
132 64 273 132 312 151 40 19 76 42 81 52 6 14 8 128 3 214 -1 11 -37 34 -103
66 -57 28 -191 93 -298 145 -107 52 -233 113 -279 136 -46 22 -88 41 -93 41
-4 0 -8 -63 -8 -139z"/>
</g>
</svg>
